<svg xmlns="http://www.w3.org/2000/svg" width="118" height="41" viewBox="0 0 118 41" fill="none"><path fill-rule="evenodd" clip-rule="evenodd" d="M16.5575 12.4C16.5575 9.96995 14.5807 8 12.1422 8V14.4516C10.9888 13.844 9.67411 13.5 8.27876 13.5C3.70653 13.5 0 17.1937 0 21.75C0 26.3063 3.70653 30 8.27876 30C9.67411 30 10.9888 29.656 12.1422 29.0484V30H16.5575V12.4ZM12.1422 21.75C12.1422 19.6237 10.4125 17.9 8.27876 17.9C6.14505 17.9 4.41534 19.6237 4.41534 21.75C4.41534 23.8763 6.14505 25.6 8.27876 25.6C10.4125 25.6 12.1422 23.8763 12.1422 21.75Z" fill="url(#paint0_linear_819_20958)"></path><path fill-rule="evenodd" clip-rule="evenodd" d="M80.6345 14.4224C79.4946 13.833 78.1998 13.5 76.8269 13.5C72.2547 13.5 68.5482 17.1937 68.5482 21.75C68.5482 26.3063 72.2547 30 76.8269 30C78.1998 30 79.4946 29.667 80.6345 29.0776V34.6517C80.6345 35.7083 79.7749 36.5648 78.7147 36.5648H76.275V41H79.3463C82.5271 41 85.1057 38.4304 85.1057 35.2606V13.28H80.6345V14.4224ZM80.6345 22.4062C80.3219 24.2199 78.7362 25.6 76.8269 25.6C74.6932 25.6 72.9635 23.8763 72.9635 21.75C72.9635 19.6237 74.6932 17.9 76.8269 17.9C78.7362 17.9 80.3219 19.2801 80.6345 21.0938V22.4062Z" fill="url(#paint1_linear_819_20958)"></path><path d="M94.8195 25.6C94.8195 28.0301 96.7963 30 99.2348 30V8H94.8195V25.6Z" fill="url(#paint2_linear_819_20958)"></path><path fill-rule="evenodd" clip-rule="evenodd" d="M31.0178 30V29.0484C29.8644 29.656 28.5497 30 27.1543 30C22.5821 30 18.8756 26.3063 18.8756 21.75C18.8756 17.1937 22.5821 13.5 27.1543 13.5C31.7266 13.5 35.4331 17.1937 35.4331 21.75V30H31.0178ZM31.0178 21.75C31.0178 23.8763 29.2881 25.6 27.1543 25.6C25.0206 25.6 23.2909 23.8763 23.2909 21.75C23.2909 19.6237 25.0206 17.9 27.1543 17.9C29.2881 17.9 31.0178 19.6237 31.0178 21.75Z" fill="url(#paint3_linear_819_20958)"></path><path fill-rule="evenodd" clip-rule="evenodd" d="M61.9252 29.0485V30H66.3405V21.75C66.3405 17.1937 62.634 13.5 58.0617 13.5C53.4895 13.5 49.783 17.1937 49.783 21.75C49.783 26.3063 53.4895 30 58.0617 30C59.4571 30 60.7718 29.656 61.9252 29.0485ZM58.0617 25.6C60.1954 25.6 61.9252 23.8763 61.9252 21.75C61.9252 19.6237 60.1954 17.9 58.0617 17.9C55.928 17.9 54.1983 19.6237 54.1983 21.75C54.1983 23.8763 55.928 25.6 58.0617 25.6Z" fill="url(#paint4_linear_819_20958)"></path><path d="M43.16 23.7221V17.9H45.3676C47.8062 17.9 49.783 15.9301 49.783 13.5H43.16V12.4C43.16 9.96995 41.1831 8 38.7446 8V13.5H36.7577V17.9H38.7446V24.2606C38.7446 27.4304 41.3232 30 44.504 30H45.9195V25.6H45.0798C44.0195 25.6 43.16 24.7787 43.16 23.7221Z" fill="url(#paint5_linear_819_20958)"></path><path d="M92.1702 30C89.7317 30 87.7549 28.0301 87.7549 25.6V13.5H92.1702V30Z" fill="url(#paint6_linear_819_20958)"></path><path d="M92.1702 10.2C92.1702 11.415 91.1818 12.4 89.9626 12.4C88.7433 12.4 87.7549 11.415 87.7549 10.2C87.7549 8.98497 88.7433 8 89.9626 8C91.1818 8 92.1702 8.98497 92.1702 10.2Z" fill="url(#paint7_linear_819_20958)"></path><path fill-rule="evenodd" clip-rule="evenodd" d="M109.721 25.6C108.269 25.6 107.003 24.801 106.343 23.62H118V21.75C118 17.1937 114.293 13.5 109.721 13.5C105.149 13.5 101.442 17.1937 101.442 21.75C101.442 26.3063 105.149 30 109.721 30H111.267V25.6H109.721ZM109.721 17.9C111.174 17.9 112.439 18.699 113.099 19.88L106.343 19.88C107.003 18.699 108.269 17.9 109.721 17.9Z" fill="url(#paint8_linear_819_20958)"></path><defs><linearGradient id="paint0_linear_819_20958" x1="-0.542771" y1="24.5" x2="117.89" y2="24.5" gradientUnits="userSpaceOnUse"><stop offset="0.414087" stop-color="#E7411D"></stop><stop offset="0.581356" stop-color="#FD9800"></stop></linearGradient><linearGradient id="paint1_linear_819_20958" x1="-0.542771" y1="24.5" x2="117.89" y2="24.5" gradientUnits="userSpaceOnUse"><stop offset="0.414087" stop-color="#E7411D"></stop><stop offset="0.581356" stop-color="#FD9800"></stop></linearGradient><linearGradient id="paint2_linear_819_20958" x1="-0.542771" y1="24.5" x2="117.89" y2="24.5" gradientUnits="userSpaceOnUse"><stop offset="0.414087" stop-color="#E7411D"></stop><stop offset="0.581356" stop-color="#FD9800"></stop></linearGradient><linearGradient id="paint3_linear_819_20958" x1="-0.542771" y1="24.5" x2="117.89" y2="24.5" gradientUnits="userSpaceOnUse"><stop offset="0.414087" stop-color="#E7411D"></stop><stop offset="0.581356" stop-color="#FD9800"></stop></linearGradient><linearGradient id="paint4_linear_819_20958" x1="-0.542771" y1="24.5" x2="117.89" y2="24.5" gradientUnits="userSpaceOnUse"><stop offset="0.414087" stop-color="#E7411D"></stop><stop offset="0.581356" stop-color="#FD9800"></stop></linearGradient><linearGradient id="paint5_linear_819_20958" x1="-0.542771" y1="24.5" x2="117.89" y2="24.5" gradientUnits="userSpaceOnUse"><stop offset="0.414087" stop-color="#E7411D"></stop><stop offset="0.581356" stop-color="#FD9800"></stop></linearGradient><linearGradient id="paint6_linear_819_20958" x1="-0.542771" y1="24.5" x2="117.89" y2="24.5" gradientUnits="userSpaceOnUse"><stop offset="0.414087" stop-color="#E7411D"></stop><stop offset="0.581356" stop-color="#FD9800"></stop></linearGradient><linearGradient id="paint7_linear_819_20958" x1="-0.542771" y1="24.5" x2="117.89" y2="24.5" gradientUnits="userSpaceOnUse"><stop offset="0.414087" stop-color="#E7411D"></stop><stop offset="0.581356" stop-color="#FD9800"></stop></linearGradient><linearGradient id="paint8_linear_819_20958" x1="-0.542771" y1="24.5" x2="117.89" y2="24.5" gradientUnits="userSpaceOnUse"><stop offset="0.414087" stop-color="#E7411D"></stop><stop offset="0.581356" stop-color="#FD9800"></stop></linearGradient></defs></svg>